<?xml version="1.0" encoding="utf-8"?>
<!-- Generator: Adobe Illustrator 23.0.3, SVG Export Plug-In . SVG Version: 6.00 Build 0)  -->
<svg version="1.2" baseProfile="tiny" id="layer" xmlns="http://www.w3.org/2000/svg" xmlns:xlink="http://www.w3.org/1999/xlink"
	 x="0px" y="0px" viewBox="0 0 126.3 126.7" xml:space="preserve">
<path fill="#813588" d="M117.8,0c2.3,0,4.4,0.9,6,2.5s2.5,3.8,2.5,6v109.7c0,2.3-0.9,4.4-2.5,6s-3.8,2.5-6,2.5H8.5
	c-2.3,0-4.4-0.9-6-2.5s-2.5-3.8-2.5-6V8.5c0-2.3,0.9-4.4,2.5-6S6.3,0,8.5,0H117.8z"/>
<path fill="#4B205A" d="M83.1,98.3L83.1,98.3l-26.2,7.6c-2.2,0.6-4.5-0.6-5.2-2.8l-19.8-69c-0.6-2.2,0.6-4.6,2.9-5.2L61.9,21
	c6.3-1.9,13,0,17.4,4.9c3.6,3.7,5.4,8.7,5.2,13.9c-0.2,5.1-2.6,10-6.4,13.3c11.2,0.7,20.3,9.3,21.5,20.5
	C100.8,84.7,93.8,95.1,83.1,98.3"/>
<path fill="#FEFEFE" d="M55.1,111.3c-3.7,0-7-2.5-8-6.1L26.8,34.5c-1.3-4.5,1.3-9.1,5.7-10.4L60.4,16c1.7-0.5,3.5-0.7,5.4-0.7
	c7,0,13.7,3,18.4,8.3c3.1,3.8,4.9,8.5,5.4,13.4c0.4,4.4-0.5,8.9-2.6,12.8c5.6,2.2,10.4,6.2,13.6,11.4c3.5,5.7,4.9,12.4,4.1,19.1
	c-0.7,5.2-3,10-6.5,13.9c-3.3,4.1-7.7,7.1-12.7,8.7L57.4,111C56.6,111.2,55.8,111.3,55.1,111.3z M66.7,20.2c-1.6,0-3.3,0.2-4.8,0.7
	l-27.2,7.9c-2.2,0.7-3.5,3-2.9,5.2l19.8,69c0.3,1.1,1,2,2,2.5s2.1,0.7,3.2,0.4L83,98.3c10.8-3.1,17.7-13.6,16.5-24.7
	C98.3,62.4,89.2,53.8,78,53.1c3.8-3.2,6.1-7.9,6.4-12.8c0.3-5.3-1.6-10.5-5.2-14.4C76,22.2,71.4,20.2,66.7,20.2z"/>
<path fill="#813588" d="M91.2,79.9c0-11.7-9.3-21.1-21-21.3c3.7-3.2,5.9-7.8,6.2-12.7c0.3-4.9-1.5-9.7-4.8-13.3
	c-4.2-4.9-10.9-6.8-17.1-5l-22.7,6.6L51.6,103c0.3,1.1,1,2,2,2.5s2.1,0.7,3.2,0.4l18.6-5.4l0.3-0.1C84.9,97.8,91.2,89.4,91.2,79.9"
	/>
</svg>
